<mxfile host="app.diagrams.net" modified="2021-03-19T11:56:13.667Z" agent="5.0 (Windows NT 10.0; Win64; x64) AppleWebKit/537.36 (KHTML, like Gecko) Chrome/89.0.4389.90 Safari/537.36" etag="ment-_P5e-IH-XHPCwds" version="14.4.9" type="github">
  <diagram id="Kvs5fgtRap4jAYM1YzB1" name="Page-1">
    <mxGraphModel dx="1221" dy="615" grid="1" gridSize="10" guides="1" tooltips="1" connect="1" arrows="1" fold="1" page="1" pageScale="1" pageWidth="850" pageHeight="1100" math="0" shadow="0">
      <root>
        <mxCell id="0" />
        <mxCell id="1" parent="0" />
        <mxCell id="VJkpmKAjvym6Ih0CXjcH-12" style="edgeStyle=orthogonalEdgeStyle;rounded=0;orthogonalLoop=1;jettySize=auto;html=1;exitX=0;exitY=1;exitDx=0;exitDy=0;entryX=0.25;entryY=0;entryDx=0;entryDy=0;" edge="1" parent="1" source="VJkpmKAjvym6Ih0CXjcH-1" target="VJkpmKAjvym6Ih0CXjcH-11">
          <mxGeometry relative="1" as="geometry" />
        </mxCell>
        <mxCell id="VJkpmKAjvym6Ih0CXjcH-1" value="" style="ellipse;whiteSpace=wrap;html=1;" vertex="1" parent="1">
          <mxGeometry x="400" y="160" width="40" height="40" as="geometry" />
        </mxCell>
        <mxCell id="VJkpmKAjvym6Ih0CXjcH-8" style="edgeStyle=orthogonalEdgeStyle;rounded=0;orthogonalLoop=1;jettySize=auto;html=1;exitX=0.75;exitY=1;exitDx=0;exitDy=0;entryX=1;entryY=0;entryDx=0;entryDy=0;" edge="1" parent="1" source="VJkpmKAjvym6Ih0CXjcH-4" target="VJkpmKAjvym6Ih0CXjcH-1">
          <mxGeometry relative="1" as="geometry" />
        </mxCell>
        <mxCell id="VJkpmKAjvym6Ih0CXjcH-4" value="" style="whiteSpace=wrap;html=1;" vertex="1" parent="1">
          <mxGeometry x="380" y="110" width="80" height="10" as="geometry" />
        </mxCell>
        <mxCell id="VJkpmKAjvym6Ih0CXjcH-9" style="edgeStyle=orthogonalEdgeStyle;rounded=0;orthogonalLoop=1;jettySize=auto;html=1;exitX=0;exitY=1;exitDx=0;exitDy=0;entryX=0.25;entryY=0;entryDx=0;entryDy=0;" edge="1" parent="1" source="VJkpmKAjvym6Ih0CXjcH-5" target="VJkpmKAjvym6Ih0CXjcH-4">
          <mxGeometry relative="1" as="geometry" />
        </mxCell>
        <mxCell id="VJkpmKAjvym6Ih0CXjcH-5" value="" style="ellipse;whiteSpace=wrap;html=1;" vertex="1" parent="1">
          <mxGeometry x="400" y="40" width="40" height="40" as="geometry" />
        </mxCell>
        <mxCell id="VJkpmKAjvym6Ih0CXjcH-17" style="edgeStyle=orthogonalEdgeStyle;rounded=0;orthogonalLoop=1;jettySize=auto;html=1;exitX=0;exitY=1;exitDx=0;exitDy=0;entryX=0.25;entryY=0;entryDx=0;entryDy=0;" edge="1" parent="1" source="VJkpmKAjvym6Ih0CXjcH-7" target="VJkpmKAjvym6Ih0CXjcH-14">
          <mxGeometry relative="1" as="geometry" />
        </mxCell>
        <mxCell id="VJkpmKAjvym6Ih0CXjcH-7" value="" style="ellipse;whiteSpace=wrap;html=1;" vertex="1" parent="1">
          <mxGeometry x="400" y="280" width="40" height="40" as="geometry" />
        </mxCell>
        <mxCell id="VJkpmKAjvym6Ih0CXjcH-13" style="edgeStyle=orthogonalEdgeStyle;rounded=0;orthogonalLoop=1;jettySize=auto;html=1;exitX=0.75;exitY=1;exitDx=0;exitDy=0;entryX=0.5;entryY=0;entryDx=0;entryDy=0;" edge="1" parent="1" source="VJkpmKAjvym6Ih0CXjcH-11" target="VJkpmKAjvym6Ih0CXjcH-7">
          <mxGeometry relative="1" as="geometry" />
        </mxCell>
        <mxCell id="VJkpmKAjvym6Ih0CXjcH-11" value="" style="whiteSpace=wrap;html=1;" vertex="1" parent="1">
          <mxGeometry x="380" y="230" width="80" height="10" as="geometry" />
        </mxCell>
        <mxCell id="VJkpmKAjvym6Ih0CXjcH-19" style="edgeStyle=orthogonalEdgeStyle;rounded=0;orthogonalLoop=1;jettySize=auto;html=1;exitX=0.25;exitY=1;exitDx=0;exitDy=0;entryX=0.71;entryY=-0.02;entryDx=0;entryDy=0;entryPerimeter=0;" edge="1" parent="1" source="VJkpmKAjvym6Ih0CXjcH-14" target="VJkpmKAjvym6Ih0CXjcH-18">
          <mxGeometry relative="1" as="geometry" />
        </mxCell>
        <mxCell id="VJkpmKAjvym6Ih0CXjcH-14" value="" style="whiteSpace=wrap;html=1;" vertex="1" parent="1">
          <mxGeometry x="380" y="350" width="80" height="10" as="geometry" />
        </mxCell>
        <mxCell id="VJkpmKAjvym6Ih0CXjcH-22" style="edgeStyle=orthogonalEdgeStyle;rounded=0;orthogonalLoop=1;jettySize=auto;html=1;exitX=0;exitY=1;exitDx=0;exitDy=0;entryX=0.155;entryY=-0.44;entryDx=0;entryDy=0;entryPerimeter=0;" edge="1" parent="1" source="VJkpmKAjvym6Ih0CXjcH-18" target="VJkpmKAjvym6Ih0CXjcH-21">
          <mxGeometry relative="1" as="geometry" />
        </mxCell>
        <mxCell id="VJkpmKAjvym6Ih0CXjcH-18" value="" style="ellipse;whiteSpace=wrap;html=1;" vertex="1" parent="1">
          <mxGeometry x="400" y="400" width="40" height="40" as="geometry" />
        </mxCell>
        <mxCell id="VJkpmKAjvym6Ih0CXjcH-24" style="edgeStyle=orthogonalEdgeStyle;rounded=0;orthogonalLoop=1;jettySize=auto;html=1;exitX=0.5;exitY=1;exitDx=0;exitDy=0;entryX=0.79;entryY=-0.02;entryDx=0;entryDy=0;entryPerimeter=0;" edge="1" parent="1" source="VJkpmKAjvym6Ih0CXjcH-21" target="VJkpmKAjvym6Ih0CXjcH-23">
          <mxGeometry relative="1" as="geometry" />
        </mxCell>
        <mxCell id="VJkpmKAjvym6Ih0CXjcH-21" value="" style="whiteSpace=wrap;html=1;" vertex="1" parent="1">
          <mxGeometry x="380" y="470" width="80" height="10" as="geometry" />
        </mxCell>
        <mxCell id="VJkpmKAjvym6Ih0CXjcH-23" value="" style="ellipse;whiteSpace=wrap;html=1;" vertex="1" parent="1">
          <mxGeometry x="400" y="520" width="40" height="40" as="geometry" />
        </mxCell>
        <mxCell id="VJkpmKAjvym6Ih0CXjcH-25" value="&lt;b&gt;you caught a fish&lt;/b&gt;" style="rounded=1;whiteSpace=wrap;html=1;" vertex="1" parent="1">
          <mxGeometry x="550" y="47.5" width="140" height="25" as="geometry" />
        </mxCell>
        <mxCell id="VJkpmKAjvym6Ih0CXjcH-26" value="&lt;b&gt;upload picture of the fish&lt;/b&gt;" style="rounded=1;whiteSpace=wrap;html=1;" vertex="1" parent="1">
          <mxGeometry x="550" y="102.5" width="150" height="25" as="geometry" />
        </mxCell>
        <mxCell id="VJkpmKAjvym6Ih0CXjcH-27" value="&lt;b&gt;picture uploaded&lt;/b&gt;" style="rounded=1;whiteSpace=wrap;html=1;" vertex="1" parent="1">
          <mxGeometry x="550" y="167.5" width="150" height="25" as="geometry" />
        </mxCell>
        <mxCell id="VJkpmKAjvym6Ih0CXjcH-28" value="&lt;b&gt;pass it to Ai program&lt;/b&gt;" style="rounded=1;whiteSpace=wrap;html=1;" vertex="1" parent="1">
          <mxGeometry x="550" y="222.5" width="150" height="25" as="geometry" />
        </mxCell>
        <mxCell id="VJkpmKAjvym6Ih0CXjcH-29" value="&lt;b&gt;picture passed&lt;/b&gt;" style="rounded=1;whiteSpace=wrap;html=1;" vertex="1" parent="1">
          <mxGeometry x="550" y="287.5" width="150" height="25" as="geometry" />
        </mxCell>
        <mxCell id="VJkpmKAjvym6Ih0CXjcH-30" value="&lt;b&gt;compared with database&lt;/b&gt;" style="rounded=1;whiteSpace=wrap;html=1;" vertex="1" parent="1">
          <mxGeometry x="550" y="342.5" width="150" height="25" as="geometry" />
        </mxCell>
        <mxCell id="VJkpmKAjvym6Ih0CXjcH-31" value="&lt;b&gt;picture compared&lt;/b&gt;" style="rounded=1;whiteSpace=wrap;html=1;" vertex="1" parent="1">
          <mxGeometry x="550" y="407.5" width="150" height="25" as="geometry" />
        </mxCell>
        <mxCell id="VJkpmKAjvym6Ih0CXjcH-32" value="&lt;b&gt;show results&lt;/b&gt;" style="rounded=1;whiteSpace=wrap;html=1;" vertex="1" parent="1">
          <mxGeometry x="550" y="462.5" width="150" height="25" as="geometry" />
        </mxCell>
        <mxCell id="VJkpmKAjvym6Ih0CXjcH-34" value="&lt;b&gt;recognition done&lt;/b&gt;" style="rounded=1;whiteSpace=wrap;html=1;" vertex="1" parent="1">
          <mxGeometry x="550" y="527.5" width="150" height="25" as="geometry" />
        </mxCell>
      </root>
    </mxGraphModel>
  </diagram>
</mxfile>
